<svg id="logo" width="139" height="42" viewBox="0 0 139 42" fill="none" xmlns="http://www.w3.org/2000/svg">
<path d="M63.1654 10.7169L71.6308 4.06814L80.4822 10.8634L85.5108 10.5141L71.7153 0L57.992 10.7169H63.1654Z" fill="currentColor"/>
<path d="M138.679 42H0V39.1038H138.679V42Z" fill="currentColor"/>
<path fill-rule="evenodd" clip-rule="evenodd" d="M81.3866 33.6609C82.5202 34.9906 84.4014 35.6555 87.0182 35.6555C88.3447 35.6555 89.4783 35.4752 90.4309 35.1258C91.3836 34.7765 92.1313 34.2581 92.698 33.5707C93.2648 32.872 93.6869 32.0494 93.9401 31.114C94.2054 30.1787 94.3381 29.0856 94.3381 27.8347V19.0786C94.3381 16.5431 93.7592 14.6273 92.6257 13.3201C91.4921 12.0129 89.6109 11.3593 87.0182 11.3593C85.6797 11.3593 84.534 11.5283 83.5814 11.8777C82.6287 12.2157 81.869 12.7116 81.3022 13.3877C80.7355 14.0751 80.3254 14.8753 80.0722 15.7993C79.819 16.7234 79.6863 17.8165 79.6863 19.0786V27.8347C79.6863 30.3928 80.2531 32.3424 81.3866 33.6609ZM87.0182 32.4551C86.56 32.4551 86.1741 32.3874 85.8485 32.2635C85.535 32.1395 85.2817 31.9818 85.1008 31.7789C84.9079 31.5761 84.7632 31.3169 84.6546 30.9901C84.5461 30.6633 84.4858 30.3365 84.4376 30.0209C84.4014 29.6941 84.3894 29.311 84.3894 28.8602V18.0757C84.3894 17.501 84.4255 17.0277 84.4858 16.6445C84.5461 16.2614 84.6667 15.9007 84.8355 15.5739C85.0044 15.2246 85.2697 14.9767 85.6314 14.8076C86.0053 14.6386 86.4635 14.5484 87.0182 14.5484C87.5609 14.5484 88.0191 14.6386 88.3809 14.8076C88.7306 14.9767 88.9959 15.2246 89.1768 15.5739C89.3577 15.9007 89.4783 16.2614 89.5386 16.6445C89.5989 17.0277 89.635 17.501 89.635 18.0757V28.8602C89.635 29.311 89.6109 29.6941 89.5747 30.0209C89.5386 30.3365 89.4662 30.6633 89.3577 30.9901C89.2491 31.3169 89.1044 31.5761 88.9115 31.7789C88.7306 31.9818 88.4774 32.1395 88.1638 32.2635C87.8503 32.3874 87.4644 32.4551 87.0182 32.4551Z" fill="currentColor"/>
<path d="M100.778 35.2836C101.61 35.5315 102.599 35.6555 103.732 35.6555C104.854 35.6555 105.83 35.5315 106.662 35.2836C107.495 35.0357 108.182 34.6863 108.712 34.2356C109.243 33.7961 109.665 33.2214 109.979 32.5227C110.304 31.8127 110.533 31.0577 110.654 30.2463C110.787 29.4237 110.859 28.4771 110.859 27.3952V11.6298H106.361V27.8347C106.361 28.3982 106.349 28.8828 106.325 29.2659C106.301 29.6491 106.228 30.0547 106.12 30.483C106.023 30.9225 105.879 31.2605 105.698 31.5197C105.517 31.7789 105.264 31.993 104.926 32.1621C104.6 32.3311 104.202 32.4213 103.732 32.4213C103.262 32.4213 102.864 32.3311 102.526 32.1621C102.189 31.993 101.935 31.7789 101.742 31.5197C101.549 31.2605 101.417 30.9225 101.308 30.483C101.212 30.0547 101.139 29.6491 101.115 29.2546C101.079 28.8602 101.067 28.3869 101.067 27.8347V11.6298H96.5811V27.3952C96.5811 28.4771 96.6414 29.4237 96.7619 30.2463C96.8946 31.0577 97.1117 31.8127 97.4373 32.5227C97.7629 33.2214 98.1849 33.7961 98.7155 34.2356C99.2582 34.6863 99.9455 35.0357 100.778 35.2836Z" fill="currentColor"/>
<path d="M112.596 28.4095C112.825 33.2439 115.164 35.6555 119.638 35.6555C121.543 35.6555 123.075 35.1146 124.232 34.044C125.414 32.9622 126.005 31.5535 126.005 29.8294C126.005 29.0743 125.897 28.3644 125.704 27.677C125.511 27.0008 125.233 26.381 124.848 25.8176C124.486 25.2541 124.1 24.7583 123.69 24.3188C123.28 23.8793 122.797 23.4285 122.243 22.9552L118.939 20.2619C118.251 19.6984 117.745 19.1801 117.419 18.6955C117.106 18.1996 116.949 17.5686 116.949 16.8023C116.949 16.1487 117.13 15.6416 117.479 15.2584C117.853 14.864 118.372 14.6499 119.059 14.6048C119.457 14.5823 119.807 14.6386 120.096 14.7738C120.41 14.8978 120.651 15.0781 120.82 15.3147C121.001 15.5289 121.157 15.8219 121.266 16.1825C121.374 16.5431 121.459 16.9037 121.495 17.253C121.543 17.6136 121.579 18.0306 121.604 18.5039L125.559 17.7714C125.499 17.0277 125.39 16.3628 125.233 15.7542C125.077 15.1457 124.847 14.5597 124.534 13.9963C124.22 13.4328 123.835 12.9595 123.364 12.5876C122.906 12.2157 122.315 11.9115 121.604 11.6861C120.892 11.4607 120.072 11.348 119.132 11.3593C117.118 11.3818 115.514 11.9002 114.356 12.9144C113.198 13.9399 112.62 15.3711 112.62 17.2192C112.62 18.5152 112.861 19.597 113.343 20.4647C113.826 21.3212 114.549 22.1551 115.538 22.9552L118.878 25.6598C119.493 26.1782 119.976 26.6177 120.313 26.967C120.651 27.3051 120.952 27.7558 121.206 28.308C121.459 28.8602 121.592 29.4575 121.592 30.1111C121.592 30.7985 121.411 31.3281 121.073 31.7338C120.735 32.1395 120.205 32.3311 119.505 32.3311C117.684 32.3311 116.732 30.7647 116.623 27.6206L112.596 28.4095Z" fill="currentColor"/>
<path d="M127.766 11.6298V35.3738H138.474V32.3762H132.396V24.5441H137.136V21.5015H132.396V14.6837H138.402V11.6298H127.766Z" fill="currentColor"/>
<path d="M69.3758 21.524L69.3637 11.6523H74.5733L74.5853 21.5578L69.3758 21.524Z" fill="currentColor"/>
<path d="M69.4843 35.2273L69.4723 24.6906H74.6577L74.6697 35.2498L69.4843 35.2273Z" fill="currentColor"/>
<path d="M1.6521 33.8637C2.71329 35.2723 4.4498 35.971 6.84955 35.971C8.95989 35.971 10.3949 35.0582 11.1546 33.2439L11.4923 35.6555H14.495V23.5975H7.58516V26.3923H10.3346V28.3418C10.3346 29.0631 10.2864 29.6829 10.1899 30.2012C10.1055 30.7083 9.96079 31.1591 9.74373 31.5535C9.53872 31.9479 9.24931 32.2409 8.87547 32.4438C8.50164 32.6354 8.0434 32.7368 7.48868 32.7368C6.42748 32.7368 5.716 32.3987 5.33011 31.7451C4.95628 31.0802 4.76333 30.0209 4.76333 28.5898V19.011C4.76333 18.6279 4.77539 18.3011 4.78745 18.0531C4.78745 17.8052 4.81157 17.5235 4.84775 17.1967C4.88392 16.8699 4.93216 16.6107 4.99246 16.4079C5.06481 16.1937 5.16128 15.9909 5.28187 15.7655C5.42658 15.5401 5.58335 15.3824 5.76424 15.2697C5.94512 15.1457 6.17424 15.0443 6.43954 14.9654C6.7169 14.8753 7.03044 14.8302 7.36809 14.8302C7.82634 14.8302 8.22429 14.8865 8.53782 15.0105C8.85136 15.1232 9.1046 15.2697 9.28548 15.45C9.46637 15.6303 9.61108 15.9007 9.69549 16.2388C9.80402 16.5769 9.86432 16.9037 9.88844 17.2418C9.91255 17.5798 9.92461 18.0081 9.92461 18.5264V19.766H14.3623V18.6053C14.3623 16.2614 13.8076 14.5146 12.7223 13.3765C11.6249 12.2157 9.82814 11.641 7.3078 11.641C5.93306 11.641 4.76333 11.8326 3.82273 12.2045C2.87006 12.5764 2.1224 13.1285 1.57974 13.8723C1.03708 14.6273 0.651193 15.4838 0.410012 16.4867C0.192948 17.4671 0.0723578 18.6391 0.0723578 20.0027V27.7333C0.0723578 30.4153 0.602957 32.4551 1.6521 33.8637Z" fill="currentColor"/>
<path fill-rule="evenodd" clip-rule="evenodd" d="M18.3298 33.9538C19.4633 35.2723 21.3325 35.9372 23.9493 35.9372C25.2758 35.9372 26.4214 35.7682 27.3741 35.4076C28.3147 35.0582 29.0744 34.5398 29.6412 33.8524C30.208 33.1537 30.618 32.3311 30.8833 31.407C31.1365 30.4604 31.2812 29.3673 31.2812 28.1165V19.3604C31.2812 16.8248 30.7024 14.9091 29.5568 13.6018C28.4232 12.2946 26.5541 11.641 23.9493 11.641C22.6108 11.641 21.4651 11.8101 20.5245 12.1594C19.5719 12.4975 18.8121 12.9933 18.2333 13.6807C17.6786 14.3569 17.2686 15.157 17.0153 16.081C16.75 17.0051 16.6295 18.0982 16.6295 19.3604V28.1165C16.6295 30.6858 17.1962 32.6241 18.3298 33.9538ZM23.9493 32.7368C23.5031 32.7368 23.1172 32.6692 22.7916 32.5452C22.466 32.4212 22.2249 32.2635 22.0319 32.0606C21.851 31.8578 21.7063 31.5986 21.5978 31.2718C21.4893 30.945 21.4169 30.6182 21.3807 30.3027C21.3445 29.9759 21.3325 29.5927 21.3325 29.1419V18.3574C21.3325 17.7827 21.3687 17.3094 21.429 16.9262C21.4893 16.5431 21.5978 16.1825 21.7787 15.8557C21.9475 15.5063 22.2128 15.2584 22.5746 15.0894C22.9363 14.9203 23.3946 14.8302 23.9493 14.8302C24.504 14.8302 24.9623 14.9203 25.312 15.0894C25.6738 15.2584 25.9391 15.5063 26.1079 15.8557C26.3008 16.1825 26.4214 16.5431 26.4817 16.9262C26.542 17.3094 26.5661 17.7827 26.5661 18.3574V29.1419C26.5661 29.5927 26.5541 29.9759 26.5179 30.3027C26.4817 30.6182 26.4094 30.945 26.3008 31.2718C26.1923 31.5986 26.0476 31.8578 25.8546 32.0606C25.6738 32.2635 25.4205 32.4212 25.0949 32.5452C24.7814 32.6692 24.3955 32.7368 23.9493 32.7368Z" fill="currentColor"/>
<path fill-rule="evenodd" clip-rule="evenodd" d="M35.0075 33.9538C36.141 35.2723 38.0102 35.9372 40.627 35.9372C41.9535 35.9372 43.087 35.7682 44.0397 35.4076C44.9924 35.0582 45.7521 34.5398 46.3068 33.8524C46.8857 33.1537 47.2957 32.3311 47.5489 31.407C47.8142 30.4604 47.9468 29.3673 47.9468 28.1165V19.3604C47.9468 16.8248 47.3801 14.9091 46.2345 13.6018C45.1009 12.2946 43.2318 11.641 40.627 11.641C39.2884 11.641 38.1428 11.8101 37.1902 12.1594C36.2375 12.4975 35.4778 12.9933 34.911 13.6807C34.3442 14.3569 33.9342 15.157 33.681 16.081C33.4277 17.0051 33.3071 18.0982 33.3071 19.3604V28.1165C33.3071 30.6858 33.8739 32.6241 35.0075 33.9538ZM40.627 32.7368C40.1808 32.7368 39.7829 32.6692 39.4573 32.5452C39.1437 32.4212 38.8905 32.2635 38.7096 32.0606C38.5287 31.8578 38.384 31.5986 38.2634 31.2718C38.1669 30.945 38.0946 30.6182 38.0464 30.3027C38.0222 29.9759 38.0102 29.5927 38.0102 29.1419V18.3574C38.0102 17.7827 38.0343 17.3094 38.0946 16.9262C38.1549 16.5431 38.2755 16.1825 38.4443 15.8557C38.6252 15.5063 38.8905 15.2584 39.2523 15.0894C39.614 14.9203 40.0723 14.8302 40.627 14.8302C41.1817 14.8302 41.6279 14.9203 41.9897 15.0894C42.3514 15.2584 42.6167 15.5063 42.7856 15.8557C42.9665 16.1825 43.087 16.5431 43.1594 16.9262C43.2197 17.3094 43.2438 17.7827 43.2438 18.3574V29.1419C43.2438 29.5927 43.2197 29.9759 43.1835 30.3027C43.1594 30.6182 43.087 30.945 42.9665 31.2718C42.87 31.5986 42.7253 31.8578 42.5203 32.0606C42.3394 32.2635 42.0861 32.4212 41.7726 32.5452C41.4591 32.6692 41.0732 32.7368 40.627 32.7368Z" fill="currentColor"/>
<path fill-rule="evenodd" clip-rule="evenodd" d="M50.3828 11.9115V35.6555H56.4847C57.9559 35.6555 59.198 35.4977 60.2109 35.1935C61.2239 34.8779 62.0318 34.3933 62.6348 33.7397C63.2377 33.0749 63.6839 32.2748 63.9492 31.3281C64.2145 30.3815 64.3472 29.2321 64.3472 27.8798V19.3153C64.3472 17.9968 64.2145 16.8924 63.9492 15.9909C63.696 15.0894 63.2498 14.3231 62.6348 13.7033C62.0077 13.0835 61.1756 12.6327 60.1506 12.3397C59.1135 12.058 57.8353 11.9115 56.3038 11.9115H50.3828ZM56.3279 32.6241H55.0135V15.0105H56.2917C56.8103 15.0105 57.2564 15.0443 57.6182 15.1119C57.9921 15.1682 58.2935 15.2697 58.5347 15.4387C58.788 15.5852 58.9809 15.7655 59.1256 15.9571C59.2703 16.1487 59.3909 16.4191 59.4633 16.7685C59.5356 17.1178 59.5959 17.4559 59.608 17.8052C59.6321 18.1433 59.6441 18.5941 59.6441 19.1575V27.8347C59.6441 28.3982 59.6321 28.8264 59.62 29.1081C59.62 29.4011 59.5959 29.7505 59.5477 30.1562C59.5115 30.5619 59.4512 30.8548 59.3668 31.0577C59.2824 31.2605 59.1618 31.4746 59.005 31.7113C58.8482 31.9592 58.6553 32.1283 58.4141 32.2297C58.185 32.3311 57.8956 32.4325 57.5459 32.5001C57.1962 32.579 56.7982 32.6241 56.3279 32.6241Z" fill="currentColor"/>
</svg>
