<svg width="21" height="18" viewBox="0 0 21 18" fill="none" xmlns="http://www.w3.org/2000/svg">
<path d="M18.5818 0.795745C18.5818 0.795745 20.0266 0.148 20.0515 1.2186L16.8894 17.1053C16.8894 17.1053 16.441 18.2003 15.2459 17.6776L10.7635 14.242L7.87478 16.8563C7.86813 16.8614 7.64732 17.0285 7.40213 16.9305C7.40213 16.9305 7.1775 16.9056 6.92849 16.0838C6.65421 15.2359 5.31033 10.8299 5.31033 10.8299L0.853298 9.33578C0.853298 9.33578 0.18093 9.08721 0.106228 8.5643C0.0323828 8.04722 0.859287 7.74958 0.877713 7.74301L18.5818 0.795745ZM16.615 4.03207C16.6398 3.6587 16.0174 4.03207 16.0174 4.03207L6.23123 10.2577C6.08221 10.3573 6.03217 10.5313 6.08181 10.6805L7.25271 14.5155C7.32755 14.7393 7.65108 14.7145 7.70095 14.4657L7.97439 12.1248C7.97439 12.0253 8.02471 11.951 8.09939 11.9012C9.04561 11.0546 16.0926 4.72932 16.3914 4.43051C16.7148 4.0821 16.615 4.03207 16.615 4.03207Z" fill="currentColor"/>
</svg>
