<svg width="22" height="22" viewBox="0 0 22 22" fill="none" xmlns="http://www.w3.org/2000/svg">
<path d="M18.3657 3.56486C16.4202 1.57838 13.7309 0.5 10.9843 0.5C5.14776 0.5 0.455658 5.21081 0.512879 10.9432C0.512879 12.7595 1.02787 14.5189 1.88618 16.1081L0.398438 21.5L5.94885 20.0811C7.49381 20.9324 9.21043 21.3297 10.927 21.3297C16.7063 21.3297 21.3984 16.6189 21.3984 10.8865C21.3984 8.1054 20.3112 5.49459 18.3657 3.56486ZM10.9843 19.5703C9.43931 19.5703 7.89435 19.173 6.57827 18.3784L6.23495 18.2081L2.91615 19.0595L3.77446 15.8243L3.54558 15.4838C1.02787 11.4541 2.2295 6.11892 6.34939 3.62162C10.4693 1.12432 15.7908 2.31622 18.3085 6.4027C20.8262 10.4892 19.6246 15.7676 15.5047 18.2649C14.1886 19.1162 12.5864 19.5703 10.9843 19.5703ZM16.0197 13.2703L15.3903 12.9865C15.3903 12.9865 14.4747 12.5892 13.9025 12.3054C13.8453 12.3054 13.7881 12.2486 13.7309 12.2486C13.5592 12.2486 13.4448 12.3054 13.3303 12.3622C13.3303 12.3622 13.2731 12.4189 12.472 13.327C12.4148 13.4405 12.3003 13.4973 12.1859 13.4973H12.1287C12.0715 13.4973 11.957 13.4405 11.8998 13.3838L11.6137 13.2703C10.9843 12.9865 10.4121 12.6459 9.9543 12.1919C9.83986 12.0784 9.66819 11.9649 9.55375 11.8513C9.1532 11.4541 8.75266 11 8.46656 10.4892L8.40934 10.3757C8.35211 10.3189 8.35212 10.2622 8.29489 10.1486C8.29489 10.0351 8.2949 9.92162 8.35212 9.86486C8.35212 9.86486 8.581 9.58108 8.75266 9.41081C8.8671 9.2973 8.92432 9.12703 9.03876 9.01351C9.15321 8.84324 9.21043 8.61622 9.1532 8.44595C9.09598 8.16216 8.40934 6.62973 8.23767 6.28919C8.12323 6.11892 8.00879 6.06216 7.83713 6.0054H7.66547C7.55103 6.0054 7.37936 6.0054 7.2077 6.0054C7.09326 6.0054 6.97882 6.06216 6.86438 6.06216L6.80716 6.11892C6.69272 6.17567 6.57827 6.28919 6.46383 6.34595C6.34939 6.45946 6.29217 6.57297 6.17773 6.68649C5.77718 7.1973 5.5483 7.82162 5.5483 8.44595C5.5483 8.9 5.66274 9.35405 5.83441 9.75135L5.89162 9.92162C6.40661 11 7.09326 11.9649 8.00879 12.8162L8.23767 13.0432C8.40934 13.2135 8.581 13.327 8.69544 13.4973C9.89707 14.5189 11.2704 15.2568 12.8153 15.6541C12.987 15.7108 13.2159 15.7108 13.3875 15.7676C13.5592 15.7676 13.7881 15.7676 13.9597 15.7676C14.2458 15.7676 14.5892 15.6541 14.8181 15.5405C14.9897 15.427 15.1042 15.427 15.2186 15.3135L15.333 15.2C15.4475 15.0865 15.5619 15.0297 15.6764 14.9162C15.7908 14.8027 15.9052 14.6892 15.9625 14.5757C16.0769 14.3486 16.1341 14.0649 16.1914 13.7811C16.1914 13.6676 16.1914 13.4973 16.1914 13.3838C16.1914 13.3838 16.1341 13.327 16.0197 13.2703Z" fill="currentColor"/>
</svg>
