<svg width="20" height="20" viewBox="0 0 20 20" fill="none" xmlns="http://www.w3.org/2000/svg">
<path d="M7.4987 12.5C8.27527 12.5 8.66355 12.5 8.96984 12.3731C9.37822 12.204 9.70267 11.8795 9.87183 11.4711C9.9987 11.1649 9.9987 10.7766 9.9987 10C9.9987 9.22343 9.9987 8.83515 9.87183 8.52886C9.70267 8.12048 9.37822 7.79602 8.96984 7.62687C8.66355 7.5 8.27527 7.5 7.4987 7.5H3.33203C2.55546 7.5 2.16718 7.5 1.86089 7.62687C1.45251 7.79602 1.12806 8.12048 0.958899 8.52886C0.832031 8.83515 0.832031 9.22343 0.832031 10C0.832031 10.7766 0.832031 11.1649 0.958899 11.4711C1.12806 11.8795 1.45251 12.204 1.86089 12.3731C2.16718 12.5 2.55546 12.5 3.33203 12.5L7.4987 12.5Z" stroke="currentColor" stroke-linecap="round" stroke-linejoin="round"/>
<path d="M16.6667 12.5C17.4432 12.5 17.8315 12.5 18.1378 12.3731C18.5462 12.204 18.8706 11.8795 19.0398 11.4711C19.1667 11.1649 19.1667 10.7766 19.1667 10C19.1667 9.22343 19.1667 8.83515 19.0398 8.52886C18.8706 8.12048 18.5462 7.79602 18.1378 7.62687C17.8315 7.5 17.4432 7.5 16.6667 7.5H12.5C11.7234 7.5 11.3351 7.5 11.0289 7.62687C10.6205 7.79602 10.296 8.12048 10.1269 8.52886C10 8.83515 10 9.22343 10 10C10 10.7766 10 11.1649 10.1269 11.4711C10.296 11.8795 10.6205 12.204 11.0289 12.3731C11.3351 12.5 11.7234 12.5 12.5 12.5L16.6667 12.5Z" stroke="currentColor" stroke-linecap="round" stroke-linejoin="round"/>
<path d="M12.2727 7.5C13.1199 7.5 13.5435 7.5 13.8776 7.37313C14.3231 7.20398 14.6771 6.87952 14.8616 6.47114C15 6.16485 15 5.77657 15 5C15 4.22343 15 3.83515 14.8616 3.52886C14.6771 3.12048 14.3231 2.79602 13.8776 2.62687C13.5435 2.5 13.1199 2.5 12.2727 2.5H7.72727C6.88011 2.5 6.45652 2.5 6.12239 2.62687C5.67689 2.79602 5.32294 3.12048 5.1384 3.52886C5 3.83515 5 4.22343 5 5C5 5.77657 5 6.16485 5.1384 6.47114C5.32294 6.87952 5.67689 7.20398 6.12239 7.37313C6.45652 7.5 6.88011 7.5 7.72727 7.5L12.2727 7.5Z" stroke="currentColor" stroke-linecap="round" stroke-linejoin="round"/>
<path d="M12.2727 17.5C13.1199 17.5 13.5435 17.5 13.8776 17.3731C14.3231 17.204 14.6771 16.8795 14.8616 16.4711C15 16.1649 15 15.7766 15 15C15 14.2234 15 13.8351 14.8616 13.5289C14.6771 13.1205 14.3231 12.796 13.8776 12.6269C13.5435 12.5 13.1199 12.5 12.2727 12.5H7.72727C6.88011 12.5 6.45652 12.5 6.12239 12.6269C5.67689 12.796 5.32294 13.1205 5.1384 13.5289C5 13.8351 5 14.2234 5 15C5 15.7766 5 16.1649 5.1384 16.4711C5.32294 16.8795 5.67689 17.204 6.12239 17.3731C6.45652 17.5 6.88011 17.5 7.72727 17.5L12.2727 17.5Z" stroke="currentColor" stroke-linecap="round" stroke-linejoin="round"/>
</svg>
