<svg width="20" height="20" viewBox="0 0 20 20" fill="none" xmlns="http://www.w3.org/2000/svg">
<path d="M16.6654 5.79427V14.2109C16.532 14.1859 16.3904 14.1693 16.2487 14.1693C15.0987 14.1693 14.1654 15.1026 14.1654 16.2526C14.1654 16.3943 14.182 16.5359 14.207 16.6693H5.79036C5.81536 16.5359 5.83203 16.3943 5.83203 16.2526C5.83203 15.1026 4.8987 14.1693 3.7487 14.1693C3.60703 14.1693 3.46536 14.1859 3.33203 14.2109V5.79427C3.46536 5.81927 3.60703 5.83594 3.7487 5.83594C4.8987 5.83594 5.83203 4.9026 5.83203 3.7526C5.83203 3.61094 5.81536 3.46927 5.79036 3.33594H14.207C14.182 3.46927 14.1654 3.61094 14.1654 3.7526C14.1654 4.9026 15.0987 5.83594 16.2487 5.83594C16.3904 5.83594 16.532 5.81927 16.6654 5.79427Z" stroke="currentColor" stroke-linecap="round" stroke-linejoin="round"/>
<path d="M5.83464 3.7474C5.83464 4.8974 4.9013 5.83073 3.7513 5.83073C3.60964 5.83073 3.46797 5.81406 3.33464 5.78906C2.38464 5.5974 1.66797 4.75573 1.66797 3.7474C1.66797 2.5974 2.6013 1.66406 3.7513 1.66406C4.75964 1.66406 5.6013 2.38073 5.79297 3.33073C5.81797 3.46406 5.83464 3.60573 5.83464 3.7474Z" stroke="currentColor" stroke-linecap="round" stroke-linejoin="round"/>
<path d="M18.3346 3.7474C18.3346 4.75573 17.618 5.5974 16.668 5.78906C16.5346 5.81406 16.393 5.83073 16.2513 5.83073C15.1013 5.83073 14.168 4.8974 14.168 3.7474C14.168 3.60573 14.1846 3.46406 14.2096 3.33073C14.4013 2.38073 15.243 1.66406 16.2513 1.66406C17.4013 1.66406 18.3346 2.5974 18.3346 3.7474Z" stroke="currentColor" stroke-linecap="round" stroke-linejoin="round"/>
<path d="M5.83464 16.2474C5.83464 16.3891 5.81797 16.5307 5.79297 16.6641C5.6013 17.6141 4.75964 18.3307 3.7513 18.3307C2.6013 18.3307 1.66797 17.3974 1.66797 16.2474C1.66797 15.2391 2.38464 14.3974 3.33464 14.2057C3.46797 14.1807 3.60964 14.1641 3.7513 14.1641C4.9013 14.1641 5.83464 15.0974 5.83464 16.2474Z" stroke="currentColor" stroke-linecap="round" stroke-linejoin="round"/>
<path d="M18.3346 16.2474C18.3346 17.3974 17.4013 18.3307 16.2513 18.3307C15.243 18.3307 14.4013 17.6141 14.2096 16.6641C14.1846 16.5307 14.168 16.3891 14.168 16.2474C14.168 15.0974 15.1013 14.1641 16.2513 14.1641C16.393 14.1641 16.5346 14.1807 16.668 14.2057C17.618 14.3974 18.3346 15.2391 18.3346 16.2474Z" stroke="currentColor" stroke-linecap="round" stroke-linejoin="round"/>
</svg>
