<svg width="20" height="20" viewBox="0 0 20 20" fill="none" xmlns="http://www.w3.org/2000/svg">
<path d="M5.83464 7.91957L1.66797 10.0029L9.70316 14.0205C9.81248 14.0752 9.86714 14.1025 9.92447 14.1132C9.97525 14.1228 10.0274 14.1228 10.0781 14.1132C10.1355 14.1025 10.1901 14.0752 10.2994 14.0205L18.3346 10.0029L14.168 7.91957M5.83464 12.0862L1.66797 14.1696L9.70316 18.1872C9.81248 18.2418 9.86714 18.2692 9.92447 18.2799C9.97525 18.2894 10.0274 18.2894 10.0781 18.2799C10.1355 18.2692 10.1901 18.2418 10.2994 18.1872L18.3346 14.1696L14.168 12.0862M1.66797 5.83624L9.70316 1.81864C9.81248 1.76398 9.86714 1.73665 9.92447 1.7259C9.97525 1.71637 10.0274 1.71637 10.0781 1.7259C10.1355 1.73665 10.1901 1.76398 10.2994 1.81864L18.3346 5.83624L10.2994 9.85383C10.1901 9.90849 10.1355 9.93582 10.0781 9.94658C10.0274 9.9561 9.97525 9.9561 9.92447 9.94658C9.86714 9.93582 9.81248 9.90849 9.70316 9.85383L1.66797 5.83624Z" stroke="currentColor" stroke-linecap="round" stroke-linejoin="round"/>
</svg>
