<svg width="20" height="20" viewBox="0 0 20 20" fill="none" xmlns="http://www.w3.org/2000/svg">
<path d="M16.6693 8.33073V2.9974C16.6693 2.53069 16.6693 2.29733 16.5784 2.11907C16.4985 1.96227 16.3711 1.83478 16.2143 1.75489C16.036 1.66406 15.8026 1.66406 15.3359 1.66406H4.66927C4.20256 1.66406 3.96921 1.66406 3.79095 1.75489C3.63414 1.83478 3.50666 1.96227 3.42677 2.11907C3.33594 2.29733 3.33594 2.53069 3.33594 2.9974V8.33073M16.6693 8.33073H3.33594M16.6693 8.33073V8.4974C16.6693 9.89753 16.6693 10.5976 16.3968 11.1324C16.1571 11.6028 15.7747 11.9852 15.3042 12.2249C14.7695 12.4974 14.0694 12.4974 12.6693 12.4974H7.33594C5.93581 12.4974 5.23574 12.4974 4.70096 12.2249C4.23056 11.9852 3.8481 11.6028 3.60842 11.1324C3.33594 10.5976 3.33594 9.89753 3.33594 8.4974V8.33073M12.0859 12.4974V16.2474C12.0859 17.398 11.1532 18.3307 10.0026 18.3307C8.85201 18.3307 7.91927 17.398 7.91927 16.2474V12.4974" stroke="currentColor" stroke-linecap="round" stroke-linejoin="round"/>
</svg>
