<svg width="20" height="20" viewBox="0 0 20 20" fill="none" xmlns="http://www.w3.org/2000/svg">
<path d="M11.6641 18.3307H5.66406M5.66406 18.3307C4.26393 18.3307 3.56387 18.3307 3.02909 18.0582C2.55868 17.8186 2.17623 17.4361 1.93655 16.9657C1.66406 16.4309 1.66406 15.7309 1.66406 14.3307M5.66406 18.3307H5.9974C7.39753 18.3307 8.09759 18.3307 8.63237 18.0582C9.10278 17.8186 9.48523 17.4361 9.72491 16.9657C9.9974 16.4309 9.9974 15.7309 9.9974 14.3307V13.9974C9.9974 12.5973 9.9974 11.8972 9.72491 11.3624C9.48523 10.892 9.10278 10.5096 8.63237 10.2699C8.09759 9.9974 7.39753 9.9974 5.9974 9.9974H5.66406C4.26393 9.9974 3.56387 9.9974 3.02909 10.2699C2.55868 10.5096 2.17623 10.892 1.93655 11.3624C1.66406 11.8972 1.66406 12.5973 1.66406 13.9974V14.3307M1.66406 14.3307V8.33073M8.33073 1.66406H11.6641M18.3307 8.33073V11.6641M14.9974 18.3307C15.7724 18.3307 16.1599 18.3307 16.4778 18.2455C17.3405 18.0144 18.0144 17.3405 18.2455 16.4778C18.3307 16.1599 18.3307 15.7724 18.3307 14.9974M18.3307 4.9974C18.3307 4.22242 18.3307 3.83493 18.2455 3.51702C18.0144 2.65428 17.3405 1.98042 16.4778 1.74925C16.1599 1.66406 15.7724 1.66406 14.9974 1.66406M4.9974 1.66406C4.22242 1.66406 3.83493 1.66406 3.51702 1.74925C2.65428 1.98042 1.98042 2.65428 1.74925 3.51702C1.66406 3.83493 1.66406 4.22242 1.66406 4.9974" stroke="currentColor" stroke-linecap="round" stroke-linejoin="round"/>
</svg>
