<svg width="24" height="24" viewBox="0 0 24 24" fill="none" xmlns="http://www.w3.org/2000/svg">
<path d="M11.2827 3.45649C11.5131 2.98955 11.6284 2.75608 11.7848 2.68149C11.9209 2.61659 12.0791 2.61659 12.2152 2.68149C12.3717 2.75608 12.4869 2.98955 12.7174 3.45649L14.9041 7.88646C14.9721 8.02431 15.0061 8.09323 15.0558 8.14675C15.0999 8.19413 15.1527 8.23252 15.2113 8.2598C15.2776 8.2906 15.3536 8.30171 15.5057 8.32395L20.397 9.03888C20.9121 9.11416 21.1696 9.15181 21.2888 9.27761C21.3925 9.38707 21.4412 9.53747 21.4215 9.68695C21.3988 9.85875 21.2124 10.0404 20.8395 10.4036L17.3014 13.8496C17.1912 13.957 17.136 14.0107 17.1004 14.0746C17.0689 14.1312 17.0487 14.1934 17.0409 14.2577C17.0321 14.3303 17.0451 14.4062 17.0711 14.5579L17.906 19.4253C17.994 19.9387 18.038 20.1953 17.9553 20.3477C17.8833 20.4802 17.7554 20.5732 17.6071 20.6006C17.4366 20.6322 17.2061 20.511 16.7451 20.2686L12.3724 17.969C12.2361 17.8974 12.168 17.8615 12.0962 17.8475C12.0327 17.835 11.9673 17.835 11.9038 17.8475C11.832 17.8615 11.7639 17.8974 11.6277 17.969L7.25492 20.2686C6.79392 20.511 6.56341 20.6322 6.39297 20.6006C6.24468 20.5732 6.11672 20.4802 6.04474 20.3477C5.962 20.1953 6.00603 19.9387 6.09407 19.4253L6.92889 14.5579C6.95491 14.4062 6.96793 14.3303 6.95912 14.2577C6.95132 14.1934 6.93111 14.1312 6.89961 14.0746C6.86402 14.0107 6.80888 13.957 6.69859 13.8496L3.16056 10.4036C2.78766 10.0404 2.60121 9.85875 2.57853 9.68695C2.55879 9.53747 2.60755 9.38707 2.71125 9.27761C2.83044 9.15181 3.08797 9.11416 3.60304 9.03888L8.49431 8.32395C8.64642 8.30171 8.72248 8.2906 8.78872 8.2598C8.84736 8.23252 8.90016 8.19413 8.94419 8.14675C8.99391 8.09323 9.02793 8.02431 9.09597 7.88646L11.2827 3.45649Z" stroke="currentColor" stroke-linecap="round" stroke-linejoin="round"/>
</svg>
