<svg width="20" height="20" viewBox="0 0 20 20" fill="none" xmlns="http://www.w3.org/2000/svg">
<path d="M17.0807 6.66667V13.5C17.0807 14.9001 17.0807 15.6002 16.8082 16.135C16.5686 16.6054 16.1861 16.9878 15.7157 17.2275C15.1809 17.5 14.4809 17.5 13.0807 17.5H6.91406C5.51393 17.5 4.81387 17.5 4.27909 17.2275C3.80868 16.9878 3.42623 16.6054 3.18655 16.135C2.91406 15.6002 2.91406 14.9001 2.91406 13.5V6.66667M2.9974 2.5H16.9974C17.4641 2.5 17.6975 2.5 17.8757 2.59083C18.0325 2.67072 18.16 2.79821 18.2399 2.95501C18.3307 3.13327 18.3307 3.36662 18.3307 3.83333V5.33333C18.3307 5.80004 18.3307 6.0334 18.2399 6.21166C18.16 6.36846 18.0325 6.49594 17.8757 6.57584C17.6975 6.66667 17.4641 6.66667 16.9974 6.66667H2.9974C2.53069 6.66667 2.29733 6.66667 2.11907 6.57584C1.96227 6.49594 1.83478 6.36846 1.75489 6.21166C1.66406 6.0334 1.66406 5.80004 1.66406 5.33333V3.83333C1.66406 3.36662 1.66406 3.13327 1.75489 2.95501C1.83478 2.79821 1.96227 2.67072 2.11907 2.59083C2.29733 2.5 2.53069 2.5 2.9974 2.5ZM7.9974 9.58333H11.9974C12.4641 9.58333 12.6975 9.58333 12.8757 9.67416C13.0325 9.75406 13.16 9.88154 13.2399 10.0383C13.3307 10.2166 13.3307 10.45 13.3307 10.9167V11.5833C13.3307 12.05 13.3307 12.2834 13.2399 12.4617C13.16 12.6185 13.0325 12.7459 12.8757 12.8258C12.6975 12.9167 12.4641 12.9167 11.9974 12.9167H7.9974C7.53069 12.9167 7.29733 12.9167 7.11907 12.8258C6.96227 12.7459 6.83479 12.6185 6.75489 12.4617C6.66406 12.2834 6.66406 12.05 6.66406 11.5833V10.9167C6.66406 10.45 6.66406 10.2166 6.75489 10.0383C6.83479 9.88154 6.96227 9.75406 7.11907 9.67416C7.29733 9.58333 7.53069 9.58333 7.9974 9.58333Z" stroke="currentColor" stroke-linecap="round" stroke-linejoin="round"/>
</svg>
