<svg width="20" height="20" viewBox="0 0 20 20" fill="none" xmlns="http://www.w3.org/2000/svg">
<path d="M4.16406 10.8359H6.66406M1.66406 7.5026L3.33073 8.33594L4.3896 5.15933C4.60816 4.50365 4.71744 4.17581 4.92014 3.93342C5.09913 3.71938 5.32899 3.55371 5.58865 3.45158C5.88269 3.33594 6.22827 3.33594 6.91942 3.33594H13.0754C13.7665 3.33594 14.1121 3.33594 14.4061 3.45158C14.6658 3.55371 14.8957 3.71938 15.0747 3.93342C15.2774 4.17581 15.3866 4.50365 15.6052 5.15933L16.6641 8.33594L18.3307 7.5026M13.3307 10.8359H15.8307M5.66406 8.33594H14.3307C15.7309 8.33594 16.4309 8.33594 16.9657 8.60842C17.4361 8.8481 17.8186 9.23056 18.0582 9.70096C18.3307 10.2357 18.3307 10.9358 18.3307 12.3359V14.5859C18.3307 14.9732 18.3307 15.1668 18.2987 15.3278C18.1672 15.9889 17.6504 16.5057 16.9892 16.6372C16.8282 16.6693 16.6346 16.6693 16.2474 16.6693H15.8307C14.9103 16.6693 14.1641 15.9231 14.1641 15.0026C14.1641 14.7725 13.9775 14.5859 13.7474 14.5859H6.2474C6.01728 14.5859 5.83073 14.7725 5.83073 15.0026C5.83073 15.9231 5.08454 16.6693 4.16406 16.6693H3.7474C3.36018 16.6693 3.16658 16.6693 3.00558 16.6372C2.34443 16.5057 1.8276 15.9889 1.69609 15.3278C1.66406 15.1668 1.66406 14.9732 1.66406 14.5859V12.3359C1.66406 10.9358 1.66406 10.2357 1.93655 9.70096C2.17623 9.23056 2.55868 8.8481 3.02909 8.60842C3.56387 8.33594 4.26393 8.33594 5.66406 8.33594Z" stroke="currentColor" stroke-linecap="round" stroke-linejoin="round"/>
</svg>
